# xmcd
#
# Track frame offsets:
# 150
# 12200
# 37352
# 49800
# 73447
# 88077
# 109695
# 124915
# 143805
# 160412
# 184040
# 196932
# 216105
# 240930
# 249132
# 263850
# 277512
# 295555
#
# Disc length: 4151 seconds
#
# Revision: 4
# Processed by: cddbd v1.5.2PL0 Copyright (c) Steve Scherf et al.
# Submitted via: TinyPlayer 2.8
#
DISCID=02103512
DTITLE=B.B. King - His Definitive Greatest Hits [Disc 2 of 2]
DYEAR=1999
DGENRE=Blues
TTITLE0=B.B. King - Help the Poor
TTITLE1=B.B. King - So Excited
TTITLE2=B.B. King - Broken Heart
TTITLE3=B.B. King - Ghetto Woman
TTITLE4=B.B. King - Ain't Nobody Home
TTITLE5=B.B. King - Darlin' You Know I Love You
TTITLE6=B.B. King - In the Midnight Hour
TTITLE7=B.B. King - Into the Night
TTITLE8=B.B. King - My Lucille
TTITLE9=B.B. King - The Blues Come Over Me
TTITLE10=Gary Moore featuring B.B. King - Since I Met You Baby
TTITLE11=B.B. King - I'm Moving On
TTITLE12=B.B. King - Let the Good Times Roll [Live]
TTITLE13=B.B. King - Woke Up This Mornin' [Live]
TTITLE14=B.B. King - Three O'clock Blues [Live]
TTITLE15=B.B. King - Please Love Me [Live]
TTITLE16=B.B. King - Caldonia [Live]
TTITLE17=B.B. King - Rock Me Baby [Live]
EXTD=Location:  - UPC: 731454734028 - Catalogue number: 5473402 - Label: Universal Music TV - ASIN: B00000JARA - Release Date: 1999 04 12 - Discogs: a37729,m223759,r5037810 - MUSICBRAINZ_ALBUMID: f50d8725-2842-4349-bad3-d64218306b94 - AMG:mn0000059156,mw0000453
EXTD=602;
EXTT0=
EXTT1=
EXTT2=
EXTT3=
EXTT4=
EXTT5=
EXTT6=
EXTT7=
EXTT8=
EXTT9=
EXTT10=
EXTT11=
EXTT12=
EXTT13=
EXTT14=
EXTT15=
EXTT16=
EXTT17=
PLAYORDER=
